<?xml version="1.0" encoding="UTF-8" standalone="no"?> <svg width="101" height="101" viewBox="0 0 101 101" fill="none" xmlns="http://www.w3.org/2000/svg">
<path d="M88.6 25.1V12.9C88.6 12.1 87.9 11.4 87.1 11.4H50.5V4.1C50.5 3.3 49.8 2.6 49 2.6C48.2 2.6 47.5 3.3 47.5 4.1V11.4H11C10.2 11.4 9.5 12.1 9.5 12.9V25.1C9.5 25.5 9.5 26.4 9.5 27.1V63C9.5 63.8 10.2 64.5 11 64.5H34.2L26.5 96.8C26.3 97.6 26.8 98.4 27.6 98.6C27.7 98.6 27.8 98.6 28 98.6C28.7 98.6 29.3 98.1 29.5 97.5L37.4 64.5H47.7V88.7C47.7 89.5 48.4 90.2 49.2 90.2C50 90.2 50.7 89.5 50.7 88.7V64.5H60.7L68.9 97.5C69.1 98.2 69.7 98.6 70.4 98.6C70.5 98.6 70.6 98.6 70.8 98.6C71.6 98.4 72.1 97.6 71.9 96.8L63.9 64.5H87.3C88.1 64.5 88.8 63.8 88.8 63C88.8 63 88.6 25.6 88.6 25.1ZM85.6 14.4V24.6H12.5V14.4H85.6ZM12.5 61.5V27.6H85.6V61.5H12.5Z" fill="black" stroke="black" stroke-width="2.2"/>
</svg>
